<?xml version="1.0" encoding="utf-8"?>
<!-- Generator: Adobe Illustrator 23.0.1, SVG Export Plug-In . SVG Version: 6.00 Build 0)  -->
<svg version="1.1" xmlns="http://www.w3.org/2000/svg" xmlns:xlink="http://www.w3.org/1999/xlink" x="0px" y="0px"
	 viewBox="0 0 88.03 31.37" style="enable-background:new 0 0 88.03 31.37;" xml:space="preserve">
<style type="text/css">
	.st0{fill:#8D9EA6;}
	.st1{fill:none;stroke:#8D9EA6;stroke-width:0.5;stroke-miterlimit:10;}
</style>
<g id="Layer_3">
	<g>
		<g>
			<path class="st0" d="M0.61,10.04V0.53h2.23v9.51H0.61z"/>
			<path class="st0" d="M5.5,2.93v0.89h0.03C5.72,3.28,6.3,2.73,6.93,2.73c0.95,0,1.8,0.52,1.8,1.48v5.82H6.72V4.96
				C6.69,4.63,6.57,4.35,6.19,4.38C5.83,4.39,5.64,4.6,5.64,4.96v5.07H3.62v-7.1H5.5z"/>
			<path class="st0" d="M10,4.41H9.19V2.95h0.8L10,2.33c0.03-1.36,0.68-1.8,1.99-1.8h0.89v1.46h-0.43c-0.23,0-0.43,0.06-0.43,0.24
				v0.72h0.86v1.46h-0.86v5.63H10V4.41z"/>
			<path class="st0" d="M20.51,21.15v-9.18h2.79c1.63,0,2.9,0.53,2.9,2.38c0,0.81-0.29,1.53-1.04,1.93v0.02
				c0.98,0.56,1.19,1.05,1.19,2.19c0,1.86-1.05,2.66-2.8,2.66H20.51z M22.67,19.5c1.08-0.03,1.53,0.05,1.53-1.19
				c0-1.07-0.61-1.04-1.53-1.08V19.5z M22.67,15.58c0.94-0.06,1.38,0,1.38-1.09c0-0.91-0.62-0.87-1.38-0.87V15.58z"/>
			<path class="st0" d="M30.03,21.15v-0.85H30c-0.18,0.53-0.75,1.07-1.36,1.07c-1.13,0-1.74-0.51-1.74-1.45v-5.63h1.95v4.91
				c0.02,0.32,0.11,0.6,0.48,0.58c0.34-0.01,0.56-0.22,0.56-0.58v-4.91h1.95v6.86H30.03z"/>
			<path class="st0" d="M32.69,21.15v-6.86h1.95v6.86H32.69z M32.69,13.62v-1.65h1.95v1.65H32.69z"/>
			<path class="st0" d="M35.58,21.15v-9.18h1.95v9.18H35.58z"/>
			<path class="st0" d="M41.51,21.15v-0.8h-0.02c-0.36,0.66-0.94,1.02-1.52,1.02c-1.42-0.05-1.7-1.38-1.7-2.55v-2.38
				c0-1.08,0.38-2.35,1.66-2.35c0.51,0,1.02,0.22,1.42,0.82h0.02v-2.95h1.95v9.18H41.51z M40.21,18.68c0,0.4,0,1.1,0.56,1.1
				c0.53,0,0.6-0.53,0.6-1.19v-1.62c0-0.59-0.09-1.3-0.56-1.29c-0.62,0-0.6,0.77-0.6,1.21V18.68z"/>
			<path class="st0" d="M45.94,18.04v1.2c0,0.38,0.17,0.7,0.6,0.72c0.72,0.04,0.65-0.61,0.69-1.19h1.93c0.1,1.76-0.86,2.57-2.55,2.6
				c-1.4,0.01-2.62-0.56-2.62-2.13v-2.79c0-1.76,1.11-2.34,2.62-2.35c1.36-0.01,2.62,0.5,2.62,1.98v1.96H45.94z M47.28,16.76v-0.67
				c0-0.24-0.16-0.7-0.66-0.7c-0.55,0-0.69,0.44-0.69,0.92v0.45H47.28z"/>
			<path class="st0" d="M51.74,14.29v1.04h0.02c0.22-0.73,0.7-1.24,1.51-1.24v2.2c-0.2-0.04-0.39-0.05-0.59-0.05
				c-0.55,0-0.77,0.11-0.81,0.67v4.22h-1.95v-6.86H51.74z"/>
			<path class="st0" d="M56.9,16.33c-0.05-0.47-0.02-0.94-0.65-0.94c-0.38,0-0.65,0.17-0.65,0.58c0,0.37,0.31,0.55,0.6,0.7
				c1.26,0.58,2.62,0.91,2.62,2.54c0,1.53-1.16,2.18-2.6,2.18c-1.54,0-2.62-0.66-2.55-2.32h1.86c-0.02,0.48,0.11,1.03,0.7,1.03
				c0.42,0,0.7-0.21,0.7-0.65c0-0.21-0.1-0.4-0.26-0.53c-0.78-0.42-1.87-0.71-2.49-1.41c-0.33-0.38-0.49-0.78-0.49-1.29
				c0-1.48,1.18-2.12,2.54-2.12c1.42,0,2.56,0.71,2.49,2.23H56.9z"/>
			<path class="st0" d="M22.43,2.93v1.08h0.03c0.23-0.76,0.72-1.28,1.56-1.28v2.28c-0.2-0.04-0.41-0.05-0.61-0.05
				c-0.57,0-0.8,0.11-0.84,0.7v4.38h-2.02v-7.1H22.43z"/>
			<path class="st0" d="M26.68,2.93v0.82h0.03c0.33-0.65,0.96-0.99,1.51-1.03c0.65-0.04,1.27,0.34,1.5,0.94h0.03
				c0.37-0.63,0.9-0.94,1.47-0.94c0.95,0,1.8,0.52,1.8,1.48v5.82h-2.02V4.96c-0.03-0.33-0.15-0.61-0.53-0.58
				c-0.35,0.01-0.55,0.22-0.55,0.58v5.07H27.9V4.96c-0.06-0.3-0.14-0.58-0.48-0.58c-0.41,0-0.57,0.2-0.6,0.58v5.07H24.8v-7.1H26.68z
				"/>
			<path class="st0" d="M37.32,9.4c-0.51,0.56-0.94,0.86-1.74,0.86c-1.14,0-1.85-0.77-1.85-1.9c0-1.61,0.88-2.12,1.76-2.41
				c0.88-0.29,1.75-0.38,1.75-1.14c0-0.39-0.23-0.74-0.63-0.74c-0.74,0-0.74,0.51-0.77,1.1h-2.02c-0.09-1.78,1.1-2.45,2.73-2.45
				c1.99,0,2.71,0.61,2.71,2.17v4.35c0,0.27,0.08,0.53,0.17,0.79h-1.97L37.32,9.4z M37.24,6.59c-0.41,0.22-0.76,0.33-1.01,0.52
				c-0.25,0.18-0.47,0.43-0.47,0.91c0,0.44,0.27,0.76,0.75,0.76c0.6,0,0.72-0.62,0.74-1.08V6.59z"/>
			<path class="st0" d="M39.74,4.39V2.93h0.8V0.91h2.02v2.03h0.96v1.46h-0.96v3.74c0,0.41,0.18,0.49,0.44,0.49
				c0.23-0.04,0.3-0.03,0.52-0.03v1.42c-0.43,0.06-0.85,0.11-1.29,0.11c-1.09,0-1.69-0.56-1.69-1.64V4.39H39.74z"/>
			<path class="st0" d="M44.52,10.04v-7.1h2.02v7.1H44.52z M44.52,2.24V0.53h2.02v1.71H44.52z"/>
			<path class="st0" d="M47.39,5.17c0-1.83,1.08-2.43,2.64-2.43c1.78,0,2.64,0.84,2.64,2.43v2.89c-0.1,1.61-1.1,2.21-2.64,2.21
				c-1.45,0-2.64-0.58-2.64-2.21V5.17z M49.4,8.18c0.04,0.41,0.2,0.62,0.62,0.62c0.42,0,0.58-0.22,0.62-0.62V5.01
				c0-0.46-0.15-0.82-0.62-0.82c-0.47,0-0.62,0.37-0.62,0.82V8.18z"/>
			<path class="st0" d="M55.26,2.93v0.89h0.03c0.19-0.55,0.77-1.09,1.41-1.09c0.95,0,1.8,0.52,1.8,1.48v5.82h-2.02V4.96
				c-0.03-0.33-0.15-0.61-0.53-0.58C55.59,4.39,55.4,4.6,55.4,4.96v5.07h-2.02v-7.1H55.26z"/>
		</g>
		<path class="st0" d="M17.25,2.76c-0.27-0.06-0.54-0.09-0.83-0.09c-0.07,0-0.13,0-0.2,0l-2.44,4.27h1.04L17.25,2.76z"/>
		<path class="st0" d="M14.77,9.99c-1.3-0.62-2.2-1.94-2.2-3.48c0-1.86,1.32-3.42,3.08-3.77l-0.71,1.21
			c-0.89,0.51-1.48,1.47-1.48,2.56c0,1.2,0.72,2.24,1.76,2.7L14.77,9.99z"/>
		<path class="st0" d="M17.09,10.31c1.81-0.31,3.19-1.89,3.19-3.79c0-1.1-0.46-2.09-1.2-2.79l-0.47,0.8
			c0.48,0.53,0.78,1.23,0.78,1.99c0,1.15-0.65,2.14-1.61,2.63L17.09,10.31z"/>
		<g>
			<polygon class="st0" points="15.04,8.01 16.07,8.01 19.77,1.49 18.74,1.49 			"/>
		</g>
		<polygon class="st0" points="18.89,6.22 17.87,6.22 15.08,11.05 16.12,11.05 		"/>
	</g>
	<line class="st1" x1="68.96" y1="9.06" x2="57.57" y2="28.92"/>
</g>
<g id="Layer_4">
	<g>
		<path class="st0" d="M66.37,19.74h3.22c1.51,0,2.51,0.7,2.51,2.17c0,1.02-0.54,1.83-1.38,1.99v0.02c0.65,0.1,1.63,0.38,1.63,2.18
			c0,1.04-0.46,2.44-2.91,2.44h-3.06V19.74z M68.44,23.26h0.57c0.72,0,1.01-0.41,1.01-1.04c0-0.46-0.25-0.95-1-0.95h-0.58V23.26z
			 M68.44,27.02h0.63c0.84,0,1.12-0.53,1.12-1.15c0-0.86-0.44-1.23-1.09-1.23h-0.67V27.02z"/>
		<path class="st0" d="M73.21,19.74h2v8.81h-2V19.74z"/>
		<path class="st0" d="M75.99,25.23c0-2,0.44-3.53,2.75-3.53c2.44,0,2.75,1.49,2.75,3.49c0,2-0.44,3.53-2.75,3.53
			C76.3,28.73,75.99,27.23,75.99,25.23z M78.75,23.01c-0.59,0-0.77,0.58-0.77,2.2c0,1.63,0.17,2.21,0.77,2.21
			c0.62,0,0.74-0.56,0.74-2.2C79.49,23.57,79.37,23.01,78.75,23.01z"/>
		<path class="st0" d="M85.67,21.88h1.85v6.44c0,1.51-0.67,2.51-2.78,2.51c-1.94,0-2.51-0.85-2.51-1.85h1.85
			c0.04,0.19,0.1,0.32,0.21,0.41c0.12,0.09,0.28,0.14,0.49,0.14c0.67,0,0.8-0.43,0.8-1.7v-0.41h-0.03c-0.27,0.77-0.9,0.99-1.58,0.99
			c-1.44,0-1.88-1.43-1.88-3.27c0-1.58,0.21-3.42,1.95-3.42c0.9,0,1.35,0.47,1.58,1.07h0.03V21.88z M84.84,26.94
			c0.54,0,0.75-0.4,0.75-1.9c0-1.22-0.15-1.8-0.73-1.8c-0.65,0-0.75,0.77-0.75,1.86C84.11,26.49,84.3,26.94,84.84,26.94z"/>
	</g>
</g>
</svg>
